<svg width="24" height="24" viewBox="0 0 24 24" fill="none" xmlns="http://www.w3.org/2000/svg">
<g clip-path="url(#clip0_5470_3009)">
<rect width="24" height="24" rx="6" fill="black"/>
<path d="M7 16.9835H16.9326V16.9445H18.9326V18.1456L18.9277 18.2316C18.8875 18.6254 18.5745 18.9384 18.1807 18.9786L18.0947 18.9835H5.83789L5.75195 18.9786C5.35788 18.9386 5.0441 18.6256 5.00391 18.2316L5 18.1456V16.9445H7V16.9835ZM7 13.5382H5V11.6398H7V13.5382ZM18.9326 13.5382H16.9326V11.6398H18.9326V13.5382ZM18.1807 5.05481C18.6028 5.09788 18.9326 5.45524 18.9326 5.88879V8.23352H16.9326V7.0509H7V8.23352H5V5.88879C5 5.4551 5.32957 5.09769 5.75195 5.05481L5.83789 5.0509H18.0947L18.1807 5.05481Z" fill="white"/>
</g>
<defs>
<clipPath id="clip0_5470_3009">
<rect width="24" height="24" fill="white"/>
</clipPath>
</defs>
</svg>
