<svg width="24" height="24" viewBox="0 0 24 24" fill="none" xmlns="http://www.w3.org/2000/svg">
<g clip-path="url(#clip0_5470_2962)">
<rect width="24" height="24" rx="6" fill="black"/>
<path d="M7.78027 10.2803C10.6853 10.4273 12.9951 12.8299 12.9951 15.7715L12.9883 16.0537C12.8411 18.9585 10.4394 21.2684 7.49805 21.2686L7.21484 21.2617C4.40377 21.1191 2.1492 18.8649 2.00684 16.0537L2 15.7715C2 12.7353 4.4619 10.2736 7.49805 10.2734L7.78027 10.2803ZM7.49805 12.4062C5.63957 12.4064 4.13281 13.913 4.13281 15.7715C4.13306 17.6298 5.63972 19.1365 7.49805 19.1367C9.35638 19.1365 10.863 17.6298 10.8633 15.7715C10.8633 13.913 9.35653 12.4064 7.49805 12.4062ZM16.0117 2.00684C18.9166 2.15402 21.2266 4.55658 21.2266 7.49805L21.2197 7.78027C21.0726 10.685 18.6707 12.9948 15.7295 12.9951L15.4463 12.9883C12.6351 12.8458 10.3807 10.5915 10.2383 7.78027L10.2314 7.49805C10.2314 4.46174 12.6932 2 15.7295 2L16.0117 2.00684ZM15.7295 4.13281C13.8709 4.13281 12.3643 5.63941 12.3643 7.49805C12.3645 9.35648 13.871 10.8633 15.7295 10.8633C17.5877 10.863 19.0945 9.35629 19.0947 7.49805C19.0947 5.6396 17.5879 4.13312 15.7295 4.13281Z" fill="white"/>
</g>
<defs>
<clipPath id="clip0_5470_2962">
<rect width="24" height="24" fill="white"/>
</clipPath>
</defs>
</svg>
