<svg width="18" height="14" viewBox="0 0 18 14" fill="none" xmlns="http://www.w3.org/2000/svg">
<path d="M15.2906 1.16365H15.26C17.3117 4.13402 18.2916 7.50249 17.9241 11.3915C17.9241 11.4222 17.9241 11.4222 17.9241 11.4222C17.9241 11.4222 17.9241 11.4222 17.8935 11.4528C16.5461 12.4633 15.015 13.2289 13.392 13.7188C13.392 13.7188 13.392 13.7188 13.3614 13.7188C13.3614 13.7188 13.3614 13.6882 13.3308 13.6882C12.9939 13.2289 12.6877 12.7083 12.4121 12.1877C12.4121 12.1571 12.4121 12.1571 12.4121 12.1571C12.4121 12.1265 12.4121 12.1265 12.4427 12.1265C12.9327 11.9427 13.4226 11.6978 13.8513 11.4528C13.8513 11.4528 13.882 11.4528 13.882 11.4222C13.882 11.4222 13.882 11.4222 13.882 11.3915C13.882 11.3915 13.882 11.3915 13.882 11.3609C13.882 11.3609 13.882 11.3609 13.8513 11.3609C13.7595 11.269 13.6676 11.2078 13.5757 11.1466C13.5757 11.1159 13.5757 11.1159 13.5451 11.1159C13.5451 11.1159 13.5451 11.1159 13.5145 11.1159C10.6054 12.4633 7.42064 12.4633 4.48089 11.1159H4.45026C4.45026 11.1159 4.41964 11.1159 4.41964 11.1466C4.32777 11.2078 4.23591 11.269 4.14404 11.3609H4.11342C4.11342 11.3915 4.11342 11.3915 4.11342 11.3915C4.11342 11.4222 4.11342 11.4222 4.11342 11.4222C4.14404 11.4222 4.14404 11.4528 4.14404 11.4528C4.60338 11.6978 5.06271 11.9427 5.55267 12.1265C5.55267 12.1265 5.55267 12.1265 5.58329 12.1265C5.58329 12.1265 5.58329 12.1265 5.58329 12.1571C5.58329 12.1571 5.58329 12.1571 5.58329 12.1877C5.30769 12.7083 5.00147 13.2289 4.66462 13.6882L4.634 13.7188H4.60338C2.98039 13.2289 1.47989 12.4633 0.101882 11.4528C0.101882 11.4222 0.101882 11.4222 0.101882 11.4222C0.07126 11.4222 0.07126 11.4222 0.07126 11.3915C-0.234964 8.05369 0.408106 4.65461 2.73541 1.16365C2.76603 1.13303 2.76603 1.13303 2.76603 1.13303C3.92968 0.612448 5.1852 0.214357 6.44072 0H6.47134L6.50197 0.0306224C6.65508 0.336846 6.80819 0.643071 6.9613 0.979917C8.30869 0.76556 9.71732 0.76556 11.0647 0.979917C11.2178 0.643071 11.3709 0.336846 11.524 0.0306224L11.5547 0H11.5853C12.8408 0.214357 14.0963 0.612448 15.26 1.13303C15.26 1.13303 15.26 1.16365 15.2906 1.16365ZM6.04263 9.37046C6.93068 9.37046 7.63499 8.54365 7.63499 7.53311C7.66562 6.55319 6.93068 5.72639 6.04263 5.72639C5.12396 5.72639 4.41964 6.55319 4.41964 7.53311C4.41964 8.54365 5.15458 9.37046 6.04263 9.37046ZM12.014 9.37046C12.9327 9.37046 13.637 8.54365 13.637 7.53311C13.637 6.55319 12.9327 5.72639 12.014 5.72639C11.1259 5.72639 10.391 6.55319 10.391 7.53311C10.391 8.54365 11.1259 9.37046 12.014 9.37046Z" fill="#999999"/>
</svg>
