<svg width="66" height="17" viewBox="0 0 66 17" fill="none" xmlns="http://www.w3.org/2000/svg">
<g clip-path="url(#clip0_5470_3072)">
<path d="M60.9942 13.32C59.7702 13.32 58.6002 12.78 57.8442 11.7H57.8082V16.47H56.3682V3.78004H57.8082V5.22004H57.8442C58.6002 4.14004 59.7702 3.60004 60.9942 3.60004C63.5682 3.60004 65.2962 5.54404 65.2962 8.46004C65.2962 11.376 63.5682 13.32 60.9942 13.32ZM60.7782 4.96804C58.7802 4.96804 57.7722 6.57004 57.7722 8.46004C57.7722 10.332 58.7802 11.952 60.7782 11.952C62.5782 11.952 63.7842 10.548 63.7842 8.46004C63.7842 6.37204 62.5782 4.96804 60.7782 4.96804Z" fill="black"/>
<path d="M50.0782 13.32C48.8542 13.32 47.6842 12.78 46.9282 11.7H46.8922V16.47H45.4521V3.78004H46.8922V5.22004H46.9282C47.6842 4.14004 48.8542 3.60004 50.0782 3.60004C52.6522 3.60004 54.3801 5.54404 54.3801 8.46004C54.3801 11.376 52.6522 13.32 50.0782 13.32ZM49.8622 4.96804C47.8642 4.96804 46.8562 6.57004 46.8562 8.46004C46.8562 10.332 47.8642 11.952 49.8622 11.952C51.6622 11.952 52.8681 10.548 52.8681 8.46004C52.8681 6.37204 51.6622 4.96804 49.8622 4.96804Z" fill="black"/>
<path d="M42.2995 13.14L40.9855 9.71999H34.7035L33.3535 13.14H31.7335L37.0255 0.179993H38.7175L44.0095 13.14H42.2995ZM35.2795 8.27999H40.4275L37.9075 1.70999H37.8715L35.2795 8.27999Z" fill="black"/>
<path d="M26.3301 6.318V7.758C26.3301 11.016 24.0441 13.32 20.6061 13.32C16.9701 13.32 14.4141 10.656 14.4141 6.66C14.4141 2.664 16.9701 0 20.6061 0C23.2881 0 25.4481 1.602 26.1321 4.05L24.5121 4.266C23.9721 2.556 22.4421 1.44 20.6061 1.44C17.9241 1.44 16.0341 3.528 16.0341 6.66C16.0341 9.792 17.9241 11.88 20.6061 11.88C23.2341 11.88 24.7641 9.99 24.7641 7.938V7.722H19.8681V6.318H26.3301Z" fill="black"/>
<path d="M10.224 1.278C11.808 2.502 12.708 4.482 12.708 6.66C12.708 10.314 10.224 13.32 6.354 13.32C5.238 13.32 4.248 13.068 3.402 12.636L3.096 13.14H1.836L2.484 12.06C0.918 10.854 0 8.874 0 6.66C0 3.006 2.484 0 6.354 0C7.47 0 8.46 0.252 9.324 0.702L9.63 0.18H10.89L10.224 1.278ZM1.62 6.66C1.62 8.298 2.232 9.756 3.294 10.71L8.532 1.998C7.902 1.674 7.164 1.476 6.354 1.476C3.51 1.476 1.62 3.798 1.62 6.66ZM6.354 11.844C9.198 11.844 11.088 9.522 11.088 6.66C11.088 5.022 10.476 3.582 9.414 2.628L4.194 11.322C4.824 11.664 5.544 11.844 6.354 11.844Z" fill="black"/>
</g>
<defs>
<clipPath id="clip0_5470_3072">
<rect width="65.2962" height="16.47" fill="white"/>
</clipPath>
</defs>
</svg>
