<svg width="24" height="24" viewBox="0 0 24 24" fill="none" xmlns="http://www.w3.org/2000/svg">
<g clip-path="url(#clip0_5264_13537)">
<path d="M8 0.5H16C20.1421 0.500001 23.5 3.85787 23.5 8V16C23.5 20.1421 20.1421 23.5 16 23.5H8C3.85787 23.5 0.500001 20.1421 0.5 16V8C0.500001 3.85786 3.85787 0.5 8 0.5Z" stroke="#CCCCCC"/>
<path d="M10.6357 12.1152C11.6963 12.1154 12.5566 12.9756 12.5566 14.0361V17.8418C12.5566 18.9024 11.6963 19.7626 10.6357 19.7627H6.83008C5.76944 19.7627 4.90918 18.9024 4.90918 17.8418V14.0361C4.90918 12.9755 5.76944 12.1152 6.83008 12.1152H10.6357ZM6.83008 13.5156C6.54264 13.5156 6.30957 13.7487 6.30957 14.0361V17.8418C6.30957 18.1292 6.54264 18.3623 6.83008 18.3623H10.6357C10.9231 18.3622 11.1562 18.1292 11.1562 17.8418V14.0361C11.1562 13.7488 10.9231 13.5158 10.6357 13.5156H6.83008ZM18.502 8.42676C19.5624 8.42696 20.4229 9.28714 20.4229 10.3477V14.1533C20.4229 15.2138 19.5624 16.074 18.502 16.0742H14.6963C13.6357 16.0742 12.7754 15.214 12.7754 14.1533V10.3477C12.7754 9.28702 13.6357 8.42676 14.6963 8.42676H18.502ZM14.6963 9.82715C14.4089 9.82715 14.1758 10.0602 14.1758 10.3477V14.1533C14.1758 14.4408 14.4089 14.6738 14.6963 14.6738H18.502C18.7892 14.6736 19.0225 14.4406 19.0225 14.1533V10.3477C19.0225 10.0603 18.7892 9.82735 18.502 9.82715H14.6963ZM8.57129 4.3623C10.6819 4.36259 12.3932 6.07395 12.3936 8.18457V8.1875C12.3934 10.2983 10.682 12.0095 8.57129 12.0098H8.56836C6.45754 12.0096 4.74624 10.2983 4.74609 8.1875V8.18457C4.74644 6.0739 6.45766 4.36252 8.56836 4.3623H8.57129ZM8.56836 5.7627C7.23086 5.76291 6.14683 6.8471 6.14648 8.18457V8.1875C6.14663 9.52513 7.23074 10.6092 8.56836 10.6094H8.57129C9.90885 10.6091 10.993 9.52509 10.9932 8.1875V8.18457C10.9928 6.84715 9.90873 5.76298 8.57129 5.7627H8.56836Z" fill="black"/>
</g>
<defs>
<clipPath id="clip0_5264_13537">
<rect width="24" height="24" fill="white"/>
</clipPath>
</defs>
</svg>
